<svg width="40" height="40" viewBox="0 0 40 40" fill="none" xmlns="http://www.w3.org/2000/svg">
<path d="M5 20L8.33333 16.6667M8.33333 16.6667L20 5L31.6667 16.6667M8.33333 16.6667V33.3333C8.33333 33.7754 8.50893 34.1993 8.82149 34.5118C9.13405 34.8244 9.55797 35 10 35H15M31.6667 16.6667L35 20M31.6667 16.6667V33.3333C31.6667 33.7754 31.4911 34.1993 31.1785 34.5118C30.866 34.8244 30.442 35 30 35H25M15 35C15.442 35 15.866 34.8244 16.1785 34.5118C16.4911 34.1993 16.6667 33.7754 16.6667 33.3333V26.6667C16.6667 26.2246 16.8423 25.8007 17.1548 25.4882C17.4674 25.1756 17.8913 25 18.3333 25H21.6667C22.1087 25 22.5326 25.1756 22.8452 25.4882C23.1577 25.8007 23.3333 26.2246 23.3333 26.6667V33.3333C23.3333 33.7754 23.5089 34.1993 23.8215 34.5118C24.134 34.8244 24.558 35 25 35M15 35H25" stroke="black" stroke-width="2" stroke-linecap="round" stroke-linejoin="round"/>
</svg>
